IKResults
version=1
nRows=4
nColumns=63
inDegrees=yes

Units are S.I. units (second, meters, Newtons, ...)
If the header above contains a line with 'inDegrees', this indicates whether rotational values are in degrees (yes) or radians (no).

endheader
time	pelvis_tilt	pelvis_list	pelvis_rotation	pelvis_tx	pelvis_ty	pelvis_tz	hip_flexion_r	hip_adduction_r	hip_rotation_r	knee_angle_r	knee_angle_r_beta	ankle_angle_r	subtalar_angle_r	mtp_angle_r	hip_flexion_l	hip_adduction_l	hip_rotation_l	knee_angle_l	knee_angle_l_beta	ankle_angle_l	subtalar_angle_l	mtp_angle_l	L5_S1_Flex_Ext	L5_S1_Lat_Bending	L5_S1_axial_rotation	L4_L5_Flex_Ext	L4_L5_Lat_Bending	L4_L5_axial_rotation	L3_L4_Flex_Ext	L3_L4_Lat_Bending	L3_L4_axial_rotation	L2_L3_Flex_Ext	L2_L3_Lat_Bending	L2_L3_axial_rotation	L1_L2_Flex_Ext	L1_L2_Lat_Bending	L1_L2_axial_rotation	L1_T12_Flex_Ext	L1_T12_Lat_Bending	L1_T12_axial_rotation	Abs_r3	Abs_r2	Abs_r1	Abs_t1	Abs_t2	neck_flexion	neck_bending	neck_rotation	arm_flex_r	arm_add_r	arm_rot_r	elbow_flex_r	pro_sup_r	wrist_flex_r	wrist_dev_r	arm_flex_l	arm_add_l	arm_rot_l	elbow_flex_l	pro_sup_l	wrist_flex_l	wrist_dev_l
      0.03333333	     -6.79129884	     -6.34359227	     30.77397678	     -0.53735076	      0.93163243	     -0.61136591	     11.48674054	     -3.21633688	    -21.36697241	     15.80539412	      0.27585617	     31.11111558	     15.92727214	      0.00000000	      3.74554913	     -8.53669230	    -34.37043504	     12.49925214	      0.21815310	      8.54314121	    -17.43520968	      0.00000000	      1.62345240	      0.04733822	      1.41014733	      3.01491345	      0.06295983	      1.49828153	      2.66716994	      0.11509814	      1.49828153	      1.85544375	      0.11509814	      1.23387891	      1.50753790	      0.09653209	      1.14574470	      0.92764070	      0.07332690	      1.05761049	     11.59615813	      0.53549937	      7.84281638	      0.00000000	      0.00000000	     16.71273438	     12.17051508	     -2.39568728	     -6.61175047	     -8.75863447	      1.68284565	     29.29977798	     89.99559364	      0.00000000	      0.00000000	     -7.94377399	    -12.49530096	     16.76245057	     24.45317053	     89.99559364	      0.00000000	      0.00000000
      0.06666667	     -6.79001358	     -6.34008517	     30.77298802	     -0.53733594	      0.93167696	     -0.61133346	     11.48655100	     -3.21633403	    -21.36587229	     15.80634680	      0.27587279	     31.11051121	     15.92206417	      0.00000000	      3.74665882	     -8.53620560	    -34.36627684	     12.50006622	      0.21816731	      8.54375995	    -17.42631289	      0.00000000	      1.62336005	      0.04749142	      1.40997638	      3.01474195	      0.06316359	      1.49809990	      2.66701823	      0.11547064	      1.49809990	      1.85533820	      0.11547064	      1.23372933	      1.50745214	      0.09684451	      1.14560581	      0.92758793	      0.07356421	      1.05748228	     11.59549851	      0.53723245	      7.84186562	      0.00000000	      0.00000000	     16.71108187	     12.17057253	     -2.39570323	     -6.61363132	     -8.75840167	      1.68290234	     29.30015468	     89.99559364	      0.00000000	      0.00000000	     -7.94428098	    -12.49639300	     16.76220654	     24.45392567	     89.99559364	      0.00000000	      0.00000000
      0.10000000	     -6.78514319	     -6.32860561	     30.75975569	     -0.53735471	      0.93177378	     -0.61125403	     11.48666443	     -3.22152127	    -21.35590941	     15.81378639	      0.27600264	     31.09023043	     15.92103074	      0.00000000	      3.74562203	     -8.52549073	    -34.35494682	     12.50284698	      0.21821585	      8.55912491	    -17.41326347	      0.00000000	      1.62047596	      0.04891104	      1.40693387	      3.00938591	      0.06505169	      1.49486724	      2.66227996	      0.11892231	      1.49486724	      1.85204198	      0.11892231	      1.23106714	      1.50477398	      0.09973940	      1.14313377	      0.92593996	      0.07576321	      1.05520041	     11.57489774	      0.55329151	      7.82494413	      0.00000000	      0.00000000	     16.70335478	     12.17242823	     -2.39639945	     -6.63780955	     -8.75841713	      1.68210585	     29.29669851	     89.99559364	      0.00000000	      0.00000000	     -7.94830985	    -12.52760136	     16.75590937	     24.45487103	     89.99559364	      0.00000000	      0.00000000
      0.13333333	     -6.75693942	     -6.29225306	     30.74472797	     -0.53736130	      0.93195599	     -0.61107562	     11.48203996	     -3.24738401	    -21.28877813	     15.87861650	      0.27713414	     30.94681530	     15.98627490	      0.00000000	      3.71727153	     -8.50640254	    -34.28478586	     12.51234264	      0.21838158	      8.68228088	    -17.40976580	      0.00000000	      1.61215418	      0.04848730	      1.39792850	      2.99393152	      0.06448811	      1.48529903	      2.64860810	      0.11789202	      1.48529903	      1.84253101	      0.11789202	      1.22318744	      1.49704637	      0.09887530	      1.13581691	      0.92118490	      0.07510682	      1.04844638	     11.51545606	      0.54849801	      7.77485894	      0.00000000	      0.00000000	     16.65423245	     12.18881040	     -2.40142282	     -6.63005426	     -8.73972305	      1.66476551	     29.29545824	     89.99559364	      0.00000000	      0.00000000	     -7.98428192	    -12.59429743	     16.73054676	     24.50673578	     89.99559364	      0.00000000	      0.00000000
